<?xml version="1.0" encoding="UTF-8" standalone="no"?>
<svg
   xmlns:dc="http://purl.org/dc/elements/1.1/"
   xmlns:cc="http://creativecommons.org/ns#"
   xmlns:rdf="http://www.w3.org/1999/02/22-rdf-syntax-ns#"
   xmlns:svg="http://www.w3.org/2000/svg"
   xmlns="http://www.w3.org/2000/svg"
   xmlns:sodipodi="http://sodipodi.sourceforge.net/DTD/sodipodi-0.dtd"
   xmlns:inkscape="http://www.inkscape.org/namespaces/inkscape"
   width="77.657257mm"
   height="69.181389mm"
   viewBox="0 0 77.657257 69.181389"
   version="1.1"
   id="svg8"
   inkscape:version="1.0.2 (1.0.2+r75+1)"
   sodipodi:docname="velopartisan.svg">
  <defs
     id="defs2">
    <inkscape:path-effect
       effect="fillet_chamfer"
       id="path-effect937"
       is_visible="true"
       lpeversion="1"
       satellites_param="F,0,0,1,0,6,0,1 @ F,0,1,1,0,5,0,1 @ F,0,0,1,0,0,0,1 @ F,0,0,1,0,0,0,1 @ F,0,0,1,0,0,0,1 @ F,0,0,1,0,0,0,1 @ F,0,0,1,0,7,0,1 @ F,0,0,1,0,6,0,1 @ F,0,0,1,0,6,0,1 @ F,0,0,1,0,7,0,1 @ F,0,0,1,0,0,0,1 @ F,0,0,1,0,0,0,1 @ F,0,1,1,0,5,0,1 @ F,0,0,1,0,6,0,1"
       unit="mm"
       method="auto"
       mode="F"
       radius="5"
       chamfer_steps="1"
       flexible="false"
       use_knot_distance="true"
       apply_no_radius="true"
       apply_with_radius="true"
       only_selected="true"
       hide_knots="false" />
  </defs>
  <sodipodi:namedview
     id="base"
     pagecolor="#ffffff"
     bordercolor="#666666"
     borderopacity="1.0"
     inkscape:pageopacity="0.0"
     inkscape:pageshadow="2"
     inkscape:zoom="1.5049357"
     inkscape:cx="79.149113"
     inkscape:cy="105.09955"
     inkscape:document-units="mm"
     inkscape:current-layer="layer1"
     inkscape:document-rotation="0"
     showgrid="false"
     inkscape:snap-global="false"
     inkscape:window-width="1920"
     inkscape:window-height="1015"
     inkscape:window-x="0"
     inkscape:window-y="0"
     inkscape:window-maximized="1"
     showborder="false" />
  <metadata
     id="metadata5">
    <rdf:RDF>
      <cc:Work
         rdf:about="">
        <dc:format>image/svg+xml</dc:format>
        <dc:type
           rdf:resource="http://purl.org/dc/dcmitype/StillImage" />
        <dc:title />
      </cc:Work>
    </rdf:RDF>
  </metadata>
  <g
     inkscape:label="Слой 1"
     inkscape:groupmode="layer"
     id="layer1"
     transform="translate(-66.171372,-113.90931)">
    <g
       id="g964"
       transform="translate(40.274148,94.019515)"
       style="fill:#808080;fill-opacity:1">
      <g
         id="g942"
         transform="matrix(0.60095934,0,0,0.60095934,-0.88870922,-17.658582)"
         style="stroke-width:1.66401;fill:#808080;fill-opacity:1">
        <circle
           style="fill:#808080;fill-opacity:1;stroke:none;stroke-width:0.440268;stop-color:#000000"
           id="path917"
           cx="134.4077"
           cy="75.955894"
           r="12.749624" />
        <path
           style="fill:#808080;fill-opacity:1;stroke:none;stroke-width:1.66401"
           d="M 72.84913,93.318685 C 67.646693,90.868361 65.375765,83.777622 68.775595,79.006458 72.070516,74.38252 77.3736,71.746125 81.78956,68.314483 c 7.18888,-5.586477 18.88054,-4.662349 24.17614,2.941549 2.16178,3.104085 -3.95343,6.500087 -7.710384,9.150512 -5.921961,4.177789 -11.143682,8.952609 -17.170154,12.759135 -2.3348,1.47474 -5.731939,1.332422 -8.236032,0.153006 z"
           id="path913" />
        <path
           style="fill:#808080;stroke:none;stroke-width:1.66401;fill-opacity:1"
           d="m 106.16547,157.01293 -1.81089,-18.83069 c -0.26434,-2.74874 -2.34728,-6.21122 -4.710462,-7.63945 -6.982599,-4.22008 -14.290003,-7.93331 -21.004042,-12.54751 -6.389451,-4.94579 -4.962121,-15.439 1.324306,-19.811648 9.18458,-6.922869 18.502508,-13.721772 28.106868,-20.04376 4.36776,-2.19256 8.74493,1.145541 11.07545,4.698858 3.29882,3.949228 6.53165,7.955181 9.83121,11.904221 2.47829,2.96612 7.47058,6.438889 11.08427,7.812619 l 7.73315,2.93972 a 5.7971158,5.7971158 66.799343 0 1 3.28482,7.66382 l -0.23507,0.55965 a 6.2509045,6.2509045 156.61132 0 1 -7.94591,3.43663 l -11.25017,-4.1924 a 26.441172,26.441172 35.266277 0 1 -11.05001,-7.81409 l -5.50792,-6.58611 -15.620173,11.35686 13.053193,13.24852 a 13.720007,13.720007 65.448814 0 1 3.9039,8.54609 l 1.96116,24.76489 a 5.7892431,5.7892431 131.49631 0 1 -5.52072,6.24084 l -0.13423,0.006 a 6.3241781,6.3241781 41.013704 0 1 -6.56873,-5.71288 z"
           id="path62"
           inkscape:path-effect="#path-effect937"
           inkscape:original-d="m 106.73982,162.98538 -2.86387,-29.78018 c -8.203352,-5.40263 -17.149928,-9.65288 -25.235874,-15.20992 -6.389451,-4.94579 -4.962121,-15.439 1.324306,-19.811648 9.18458,-6.922869 18.502508,-13.721772 28.106868,-20.04376 4.36776,-2.19256 8.74493,1.145541 11.07545,4.698858 4.79435,5.739627 9.44933,11.599071 14.37231,17.22948 l 19.88475,7.5591 -4.88229,11.62325 -23.43182,-8.73193 -9.99858,-11.95584 -15.620173,11.35686 16.562373,16.81021 2.82954,35.73056 z" />
      </g>
      <path
         id="path77"
         style="fill:#808080;fill-opacity:1;stroke:none;stroke-width:0.264582;stop-color:#000000"
         d="m 41.157864,58.544619 a 15.263294,15.263294 0 0 0 -15.26064,15.26312 15.263294,15.263294 0 0 0 15.263123,15.26344 15.263294,15.263294 0 0 0 15.263437,-15.26344 15.263294,15.263294 0 0 0 -15.263437,-15.26312 15.263294,15.263294 0 0 0 -0.0025,0 z m -0.06149,5.9937 a 9.269546,9.269546 0 0 1 0.06397,0 9.269546,9.269546 0 0 1 9.269737,9.26942 9.269546,9.269546 0 0 1 -9.269737,9.26974 9.269546,9.269546 0 0 1 -9.269425,-9.26974 9.269546,9.269546 0 0 1 9.205452,-9.26942 z" />
      <path
         id="path908"
         style="fill:#808080;fill-opacity:1;stroke:none;stroke-width:0.264583;stop-color:#000000"
         d="m 88.288558,58.544629 a 15.263294,15.263294 0 0 0 -15.260644,15.26312 15.263294,15.263294 0 0 0 15.263124,15.26343 15.263294,15.263294 0 0 0 15.263442,-15.26343 15.263294,15.263294 0 0 0 -15.263442,-15.26312 15.263294,15.263294 0 0 0 -0.002,0 z m -0.0615,5.99369 a 9.269546,9.269546 0 0 1 0.064,0 9.269546,9.269546 0 0 1 9.26974,9.26943 9.269546,9.269546 0 0 1 -9.26974,9.26973 9.269546,9.269546 0 0 1 -9.269426,-9.26973 9.269546,9.269546 0 0 1 9.205456,-9.26943 z" />
    </g>
  </g>
</svg>
